<svg width="66" height="79" viewBox="0 0 66 79" fill="none" xmlns="http://www.w3.org/2000/svg">
<g filter="url(#filter0_d_1515_9376)">
<mask id="mask0_1515_9376" style="mask-type:alpha" maskUnits="userSpaceOnUse" x="10" y="47" width="50" height="26">
<path d="M34.5963 72.5444L33.3221 72.284C32.2038 72.0555 31.1251 71.6641 30.1204 71.1224L15.3618 63.1637C13.7999 62.3215 12.5661 60.9791 11.8582 59.3519L11.2481 57.9491C11.0049 57.3902 10.9375 56.7706 11.0545 56.1725C11.264 55.1026 12.0362 54.2299 13.0727 53.8919L31.5285 47.8737C34.2704 46.9796 37.2462 47.1328 39.8818 48.3036L58.2692 56.4719C59.1165 56.8483 59.6626 57.6885 59.6626 58.6156C59.6626 59.0071 59.5647 59.3923 59.3777 59.7362L58.4592 61.4255C57.5506 63.0964 56.1804 64.4704 54.5121 65.3836L44.1715 71.0436C43.0874 71.637 41.9158 72.0544 40.7007 72.2801L39.063 72.5844C37.5854 72.8589 36.0687 72.8453 34.5963 72.5444Z" fill="#D9D9D9"/>
</mask>
<g mask="url(#mask0_1515_9376)">
<path fill-rule="evenodd" clip-rule="evenodd" d="M37.3899 66.6364V75.1212L16.4425 64.9306C13.0364 63.2736 10.8747 59.818 10.8747 56.0303L37.3899 66.6364Z" fill="url(#paint0_linear_1515_9376)"/>
<path d="M37.3898 75.1212L55.2112 66.0716C58.5928 64.3545 60.7231 60.8835 60.7231 57.0909L36.3292 66.8788L37.3898 75.1212Z" fill="url(#paint1_linear_1515_9376)"/>
<path d="M37.0345 46.881C34.892 45.9512 32.461 45.9457 30.3144 46.8657L12.109 54.668C10.415 55.394 10.389 57.7861 12.0668 58.5488L30.0259 66.712C34.3529 68.6788 39.3327 68.6079 43.602 66.5187L59.7189 58.6317C60.5318 58.2339 60.5051 57.0663 59.675 56.7061L37.0345 46.881Z" fill="url(#paint2_linear_1515_9376)"/>
</g>
</g>
<g filter="url(#filter1_di_1515_9376)">
<path d="M49.0569 51.5283V57.0033C49.0569 57.2702 48.9597 57.5276 48.7615 57.7064C47.686 58.6765 43.5549 61.7555 34.4465 61.7555C23.6348 61.7555 20.4205 57.4173 20.4205 57.4173C20.4205 57.4173 20.4205 53.8661 20.4205 51.5283C20.4205 51.5283 21.2971 55.3269 34.4465 55.3269C47.5958 55.3269 49.0569 51.5283 49.0569 51.5283Z" fill="url(#paint3_linear_1515_9376)"/>
<path d="M49.0569 51.5283V57.0033C49.0569 57.2702 48.9597 57.5276 48.7615 57.7064C47.686 58.6765 43.5549 61.7555 34.4465 61.7555C23.6348 61.7555 20.4205 57.4173 20.4205 57.4173C20.4205 57.4173 20.4205 53.8661 20.4205 51.5283C20.4205 51.5283 21.2971 55.3269 34.4465 55.3269C47.5958 55.3269 49.0569 51.5283 49.0569 51.5283Z" fill="url(#paint4_linear_1515_9376)"/>
</g>
<g filter="url(#filter2_di_1515_9376)">
<path d="M49.0569 51.5283C49.0569 51.5283 47.5958 55.3269 34.4465 55.3269C21.2971 55.3269 20.4205 51.5283 20.4205 51.5283C20.4205 49.1905 28.6023 48.6061 34.4465 48.6061C40.2907 48.6061 49.0569 49.1905 49.0569 51.5283Z" fill="#E6EAF8"/>
</g>
<g filter="url(#filter3_i_1515_9376)">
<path d="M29.2315 57.968C33.6371 59.0694 37.492 58.5187 39.6948 57.968" stroke="white" stroke-width="0.550699" stroke-linecap="round"/>
</g>
<g filter="url(#filter4_i_1515_9376)">
<path d="M52.1095 28.2313C51.4785 33.6026 50.0739 36.4099 55.779 36.1358C57.9947 36.234 60.3394 33.356 60.1331 28.5867C60.0168 25.897 58.6002 22.5643 56.3846 22.4662C50.7261 21.6887 52.3502 26.183 52.1095 28.2313Z" fill="url(#paint5_linear_1515_9376)"/>
</g>
<g filter="url(#filter5_i_1515_9376)">
<path d="M48.6131 27.5246C47.7126 36.2734 50.3996 40.2059 53.2906 40.3339C56.1816 40.462 59.2836 35.7456 59.0824 27.9883C58.969 23.6135 57.1673 18.2111 54.2763 18.083C51.3853 17.955 48.9565 24.1883 48.6131 27.5246Z" fill="url(#paint6_linear_1515_9376)"/>
</g>
<path d="M53.276 40.6631C51.6658 40.5918 50.1813 39.461 49.2284 37.2947C48.2766 35.1309 47.8318 31.8974 48.2853 27.4908C48.4616 25.7787 49.1676 23.3467 50.1966 21.3535C50.7113 20.3565 51.3161 19.4509 51.991 18.7982C52.6638 18.1476 53.4413 17.7162 54.2909 17.7538C55.1217 17.7906 55.8508 18.2068 56.4671 18.8397C57.0817 19.4709 57.601 20.3338 58.0235 21.3126C58.8687 23.2705 59.3542 25.7572 59.4118 27.9798C59.5135 31.9005 58.7816 35.0771 57.6383 37.2705C56.5055 39.4436 54.9153 40.7357 53.276 40.6631Z" stroke="url(#paint7_linear_1515_9376)" stroke-width="0.659017"/>
<g filter="url(#filter6_ddi_1515_9376)">
<ellipse cx="23.3333" cy="23.8636" rx="23.3333" ry="23.8636" transform="matrix(1 0 0 -1 10.8748 50.7273)" fill="url(#paint8_linear_1515_9376)"/>
</g>
<g filter="url(#filter7_f_1515_9376)">
<rect x="17.9438" y="11.968" width="27.4484" height="15.4709" rx="7.73546" fill="#AFC0FF" fill-opacity="0.59"/>
</g>
<g opacity="0.8" filter="url(#filter8_f_1515_9376)">
<path d="M49.3175 9.4228C49.287 9.43113 49.2591 9.44707 49.2365 9.46913C49.2138 9.4912 49.1972 9.51865 49.1881 9.54893C48.6945 11.148 48.3754 12.0364 48.2339 12.2141C47.9937 12.5135 47.7601 12.8667 47.374 13.0531C47.1656 13.1529 46.3737 13.3185 45.0017 13.5489L44.7198 13.5949C44.679 13.6025 44.6419 13.6235 44.6143 13.6545C44.5868 13.6856 44.5704 13.725 44.5677 13.7664C44.5651 13.8078 44.5764 13.8489 44.5997 13.8832C44.6231 13.9175 44.6573 13.9431 44.6968 13.9558C46.0897 14.3912 46.9814 14.6939 47.3729 14.8639C48.0617 15.1622 47.9531 15.1622 48.3348 15.9574C48.5519 16.4115 48.8404 17.6442 49.199 19.6568C49.2028 19.6808 49.2112 19.7039 49.2239 19.7246C49.2366 19.7453 49.2532 19.7634 49.2729 19.7776C49.2926 19.7919 49.3149 19.8022 49.3386 19.8078C49.3622 19.8134 49.3867 19.8143 49.4107 19.8104C49.4485 19.8043 49.4836 19.7867 49.511 19.76C49.5385 19.7333 49.5571 19.6988 49.5643 19.6612C49.924 17.4896 50.1927 16.2557 50.3704 15.9574C50.6775 15.4408 50.774 15.2533 51.1699 14.9824C51.4003 14.8244 52.3841 14.4811 54.1181 13.9525C54.1414 13.9456 54.1631 13.9341 54.182 13.9188C54.2008 13.9035 54.2165 13.8845 54.228 13.8631C54.2395 13.8417 54.2467 13.8182 54.2491 13.794C54.2515 13.7698 54.2491 13.7454 54.242 13.7222C54.232 13.6897 54.2134 13.6606 54.188 13.638C54.1627 13.6154 54.1317 13.6001 54.0983 13.5938C52.7383 13.3679 51.8938 13.188 51.5692 13.0531C50.9934 12.814 51.2028 12.9149 50.5974 12.213C50.2465 11.8072 49.8955 10.9188 49.5445 9.55331C49.5384 9.52967 49.5277 9.50748 49.5129 9.48803C49.4981 9.46858 49.4797 9.45226 49.4585 9.44001C49.4374 9.42777 49.4141 9.41984 49.3899 9.4167C49.3656 9.41355 49.341 9.41525 49.3175 9.4217V9.4228Z" fill="white"/>
</g>
<mask id="path-14-outside-1_1515_9376" maskUnits="userSpaceOnUse" x="20.6179" y="12.4672" width="36" height="36" fill="black">
<rect fill="white" x="20.6179" y="12.4672" width="36" height="36"/>
<path fill-rule="evenodd" clip-rule="evenodd" d="M21.7729 31.6381C21.5749 30.0669 21.5611 28.3821 21.7635 26.5863C22.3836 21.0844 31.0265 9.77155 46.9356 14.6667C53.8295 16.7879 55.9507 23.1517 55.9507 28.4546C55.9507 36.4093 54.3598 45.4242 42.1628 47.0151C38.1899 47.5333 33.775 46.6194 30.0591 44.3675C29.5897 41.5619 28.5459 37.9483 27.4071 36.274C26.3083 34.6583 23.8834 32.7603 21.7729 31.6381Z"/>
</mask>
<g filter="url(#filter9_ii_1515_9376)">
<path fill-rule="evenodd" clip-rule="evenodd" d="M21.7729 31.6381C21.5749 30.0669 21.5611 28.3821 21.7635 26.5863C22.3836 21.0844 31.0265 9.77155 46.9356 14.6667C53.8295 16.7879 55.9507 23.1517 55.9507 28.4546C55.9507 36.4093 54.3598 45.4242 42.1628 47.0151C38.1899 47.5333 33.775 46.6194 30.0591 44.3675C29.5897 41.5619 28.5459 37.9483 27.4071 36.274C26.3083 34.6583 23.8834 32.7603 21.7729 31.6381Z" fill="url(#paint9_linear_1515_9376)"/>
<path fill-rule="evenodd" clip-rule="evenodd" d="M21.7729 31.6381C21.5749 30.0669 21.5611 28.3821 21.7635 26.5863C22.3836 21.0844 31.0265 9.77155 46.9356 14.6667C53.8295 16.7879 55.9507 23.1517 55.9507 28.4546C55.9507 36.4093 54.3598 45.4242 42.1628 47.0151C38.1899 47.5333 33.775 46.6194 30.0591 44.3675C29.5897 41.5619 28.5459 37.9483 27.4071 36.274C26.3083 34.6583 23.8834 32.7603 21.7729 31.6381Z" fill="url(#paint10_linear_1515_9376)" fill-opacity="0.8"/>
</g>
<path d="M21.7635 26.5863L21.1086 26.5125L21.7635 26.5863ZM21.7729 31.6381L21.119 31.7205L21.1618 32.0596L21.4635 32.22L21.7729 31.6381ZM46.9356 14.6667L46.7417 15.2966L46.9356 14.6667ZM55.9507 28.4546H56.6097H55.9507ZM42.1628 47.0151L42.2481 47.6686L42.1628 47.0151ZM30.0591 44.3675L29.4092 44.4763L29.4591 44.7745L29.7176 44.9311L30.0591 44.3675ZM27.4071 36.274L26.8622 36.6446L27.4071 36.274ZM21.1086 26.5125C20.9007 28.3574 20.9142 30.0947 21.119 31.7205L22.4267 31.5557C22.2356 30.039 22.2215 28.4067 22.4184 26.6601L21.1086 26.5125ZM47.1294 14.0368C38.9853 11.5309 32.6381 13.1648 28.243 16.1844C23.8894 19.1755 21.4439 23.5373 21.1086 26.5125L22.4184 26.6601C22.7032 24.1333 24.8891 20.0878 28.9893 17.2708C33.048 14.4823 38.9767 12.9073 46.7417 15.2966L47.1294 14.0368ZM56.6097 28.4546C56.6097 23.0181 54.4243 16.2815 47.1294 14.0368L46.7417 15.2966C53.2346 17.2944 55.2917 23.2853 55.2917 28.4546L56.6097 28.4546ZM42.2481 47.6686C48.5268 46.8496 52.1698 44.0936 54.2062 40.4422C56.2147 36.8408 56.6097 32.4544 56.6097 28.4546L55.2917 28.4546C55.2917 32.4095 54.8912 36.5079 53.0551 39.8003C51.2467 43.0428 47.9958 45.5897 42.0776 46.3616L42.2481 47.6686ZM29.7176 44.9311C33.5576 47.2582 38.1224 48.2067 42.2481 47.6686L42.0776 46.3616C38.2574 46.8599 33.9925 45.9806 30.4007 43.8039L29.7176 44.9311ZM30.7091 44.2588C30.4695 42.8265 30.0841 41.1917 29.6126 39.6981C29.1455 38.2186 28.5769 36.822 27.9521 35.9034L26.8622 36.6446C27.3761 37.4002 27.8988 38.6476 28.3557 40.0949C28.8081 41.5281 29.1794 43.1029 29.4092 44.4763L30.7091 44.2588ZM27.9521 35.9034C26.7702 34.1657 24.2434 32.2053 22.0823 31.0562L21.4635 32.22C23.5233 33.3152 25.8464 35.151 26.8622 36.6446L27.9521 35.9034Z" fill="url(#paint11_linear_1515_9376)" mask="url(#path-14-outside-1_1515_9376)"/>
<rect x="49.0566" y="27.4029" width="3.84992" height="4.90005" rx="1.92496" transform="rotate(-0.132539 49.0566 27.4029)" fill="url(#paint12_linear_1515_9376)"/>
<rect x="35.2688" y="27.3939" width="4.50907" height="5.41088" rx="2.25453" fill="url(#paint13_linear_1515_9376)"/>
<g filter="url(#filter10_f_1515_9376)">
<path d="M27.7317 18.5096C27.7622 18.5179 27.79 18.5339 27.8127 18.5559C27.8353 18.578 27.852 18.6054 27.8611 18.6357C28.3546 20.2348 28.6738 21.1232 28.8153 21.3009C29.0555 21.6003 29.2891 21.9535 29.6752 22.1399C29.8835 22.2397 30.6754 22.4053 32.0475 22.6356L32.3294 22.6817C32.3702 22.6893 32.4073 22.7103 32.4348 22.7413C32.4624 22.7724 32.4788 22.8117 32.4814 22.8532C32.4841 22.8946 32.4728 22.9357 32.4494 22.97C32.4261 23.0043 32.3919 23.0299 32.3524 23.0426C30.9595 23.478 30.0678 23.7807 29.6763 23.9507C28.9875 24.249 29.0961 24.249 28.7144 25.0442C28.4972 25.4982 28.2088 26.731 27.8501 28.7436C27.8464 28.7676 27.8379 28.7907 27.8253 28.8114C27.8126 28.8321 27.7959 28.8502 27.7762 28.8644C27.7566 28.8787 27.7343 28.8889 27.7106 28.8946C27.687 28.9002 27.6624 28.901 27.6384 28.8971C27.6006 28.8911 27.5656 28.8735 27.5381 28.8468C27.5107 28.8201 27.4921 28.7856 27.4849 28.748C27.1252 26.5764 26.8564 25.3425 26.6788 25.0442C26.3717 24.5276 26.2752 24.34 25.8792 24.0691C25.6489 23.9112 24.6651 23.5679 22.9311 23.0393C22.9078 23.0324 22.8861 23.0209 22.8672 23.0056C22.8483 22.9902 22.8327 22.9713 22.8212 22.9499C22.8096 22.9285 22.8025 22.905 22.8001 22.8808C22.7977 22.8566 22.8001 22.8322 22.8071 22.8089C22.8171 22.7765 22.8358 22.7474 22.8611 22.7248C22.8865 22.7022 22.9175 22.6869 22.9508 22.6806C24.3108 22.4547 25.1553 22.2748 25.48 22.1399C26.0558 21.9008 25.8463 22.0017 26.4517 21.2998C26.8027 20.894 27.1537 20.0056 27.5046 18.6401C27.5107 18.6165 27.5215 18.5943 27.5363 18.5748C27.551 18.5554 27.5695 18.539 27.5906 18.5268C27.6117 18.5146 27.6351 18.5066 27.6593 18.5035C27.6835 18.5003 27.7081 18.502 27.7317 18.5085V18.5096ZM22.7885 16.3094C22.8258 16.3149 22.8554 16.3424 22.8653 16.3785C23.0013 17.0574 23.0835 17.4567 23.111 17.5773C23.1614 17.7967 23.236 18.0599 23.5475 18.1784C23.723 18.2442 24.2088 18.3264 25.0062 18.4262C25.0566 18.4328 25.0928 18.4789 25.0862 18.5293C25.0839 18.5476 25.076 18.5647 25.0636 18.5785C25.0513 18.5922 25.0351 18.6018 25.0172 18.6061L23.5475 18.9856C23.3654 19.0673 23.2129 19.2033 23.111 19.3749L22.8675 20.8402C22.866 20.8524 22.8621 20.8641 22.856 20.8747C22.85 20.8853 22.8419 20.8946 22.8322 20.9021C22.8225 20.9096 22.8114 20.915 22.7995 20.9181C22.7877 20.9212 22.7754 20.922 22.7633 20.9203C22.7437 20.9175 22.7254 20.9086 22.7112 20.8948C22.697 20.881 22.6876 20.863 22.6843 20.8435C22.5604 20.0176 22.465 19.5274 22.4013 19.3749C22.3235 19.1885 22.1699 19.0591 21.9407 18.9856L20.493 18.6028C20.4811 18.6003 20.4698 18.5955 20.4598 18.5886C20.4498 18.5818 20.4413 18.573 20.4348 18.5627C20.4282 18.5525 20.4238 18.5411 20.4217 18.5291C20.4197 18.5172 20.42 18.5049 20.4228 18.4931C20.4268 18.4756 20.4357 18.4595 20.4485 18.4469C20.4614 18.4343 20.4775 18.4256 20.4951 18.4218C21.2651 18.3122 21.7466 18.2321 21.9407 18.1784C22.284 18.0829 22.2226 18.1235 22.4013 17.5773C22.4935 17.2976 22.5878 16.9006 22.6832 16.3873C22.685 16.3753 22.6891 16.3637 22.6953 16.3532C22.7016 16.3428 22.7098 16.3337 22.7196 16.3264C22.7294 16.3192 22.7405 16.3139 22.7524 16.311C22.7642 16.3081 22.7765 16.3076 22.7885 16.3094ZM26.6875 15.7293C26.705 15.7331 26.721 15.7418 26.7337 15.7544C26.7463 15.7671 26.755 15.7831 26.7588 15.8005C26.8027 16.0232 26.8312 16.1581 26.8433 16.2064C26.8696 16.3204 26.908 16.4575 27.0692 16.5178C27.1427 16.5453 27.3193 16.5782 27.6012 16.6165C27.6516 16.6253 27.6867 16.6714 27.6779 16.7229C27.6753 16.7409 27.6673 16.7576 27.6549 16.7709C27.6426 16.7842 27.6265 16.7935 27.6088 16.7975L27.0692 16.9368C26.975 16.9793 26.8961 17.0497 26.8433 17.1386L26.7599 17.6344C26.7577 17.6463 26.7531 17.6578 26.7464 17.668C26.7397 17.6782 26.7311 17.6869 26.721 17.6938C26.7109 17.7006 26.6995 17.7054 26.6876 17.7078C26.6756 17.7102 26.6633 17.7102 26.6513 17.7078C26.6324 17.7042 26.6151 17.6945 26.6021 17.6803C26.5891 17.6661 26.581 17.6481 26.579 17.6289C26.5577 17.4629 26.5229 17.2989 26.4748 17.1386C26.4526 17.0892 26.4196 17.0454 26.3782 17.0104C26.3368 16.9755 26.2881 16.9503 26.2357 16.9368L25.6939 16.7942C25.6819 16.7915 25.6707 16.7865 25.6608 16.7793C25.6509 16.7722 25.6425 16.7631 25.6361 16.7527C25.6298 16.7423 25.6256 16.7307 25.6238 16.7186C25.6221 16.7065 25.6228 16.6942 25.6259 16.6824C25.6301 16.6649 25.6393 16.6491 25.6523 16.6369C25.6654 16.6246 25.6817 16.6164 25.6993 16.6133C25.9757 16.5727 26.1545 16.5409 26.2357 16.5178C26.4144 16.4685 26.3815 16.4893 26.4748 16.2064C26.5088 16.1022 26.5439 15.9684 26.579 15.8027C26.5811 15.7907 26.5856 15.7792 26.5922 15.7689C26.5988 15.7586 26.6075 15.7498 26.6176 15.7429C26.6278 15.7361 26.6392 15.7313 26.6512 15.729C26.6632 15.7266 26.6756 15.7267 26.6875 15.7293Z" fill="white"/>
</g>
<g filter="url(#filter11_i_1515_9376)">
<path d="M17.6346 27.3312C18.0361 30.7467 18.9841 41.8674 14.0789 41.4524C12.2043 41.6512 6.03565 36.9459 5.50201 28.5519C5.20106 23.8181 9.95886 17.4939 11.8334 17.2951C15.4848 15.9675 17.1676 23.3583 17.6346 27.3312Z" fill="#0071FF"/>
</g>
<path d="M13.0822 41.6094C13.4412 41.739 13.7843 41.8074 14.081 41.7832C14.7472 41.834 15.3297 41.6913 15.8285 41.3859C16.3307 41.0785 16.7296 40.6177 17.0462 40.0652C17.6754 38.9673 18.0101 37.4543 18.1745 35.8621C18.5044 32.6689 18.1631 29.0048 17.9619 27.2928C17.7268 25.2933 17.1847 22.4162 16.2309 20.1954C15.7555 19.0882 15.1632 18.109 14.4262 17.4918C13.6789 16.866 12.7799 16.6139 11.7568 16.9726C11.4595 17.014 11.1435 17.162 10.831 17.3656C10.4982 17.5823 10.1426 17.8798 9.77969 18.2374C9.05355 18.9531 8.27716 19.931 7.5732 21.0471C6.17248 23.2678 5.01622 26.1041 5.17317 28.5728C5.44498 32.8483 7.15247 36.1883 9.035 38.436C9.97569 39.5592 10.9639 40.4142 11.8453 40.9785C12.2859 41.2605 12.7048 41.4732 13.0822 41.6094Z" stroke="white" stroke-width="0.659017"/>
<g filter="url(#filter12_i_1515_9376)">
<path d="M13.4858 28.4381C13.7297 30.3668 14.1661 36.663 9.30351 36.6501C7.42894 36.8489 5.24301 34.0886 5.09467 29.328C5.011 26.6432 6.29572 23.1803 8.17029 22.9815C11.8646 22.0582 13.2022 26.1946 13.4858 28.4381Z" fill="#D6E8FF"/>
</g>
<path d="M6.2735 35.0253C7.09739 36.3243 8.20655 37.0882 9.32002 36.9796C10.6055 36.9793 11.5692 36.5605 12.2719 35.8804C12.9697 35.205 13.3856 34.2957 13.6286 33.3546C14.1131 31.4781 13.9358 29.3702 13.8128 28.3968C13.6676 27.2488 13.2519 25.5948 12.3778 24.3345C11.9383 23.7008 11.3733 23.1529 10.655 22.8288C9.93711 22.5048 9.0914 22.4161 8.11202 22.6565C7.55344 22.7226 7.0626 23.0253 6.65062 23.45C6.233 23.8805 5.87993 24.4522 5.59704 25.0886C5.03179 26.3603 4.72195 27.9465 4.76532 29.3382C4.84089 31.7636 5.43581 33.7046 6.2735 35.0253Z" stroke="white" stroke-width="0.659017"/>
<g filter="url(#filter13_i_1515_9376)">
<path d="M11.9898 30.7062C12.3409 31.924 13.2269 35.9427 9.70631 36.5175C8.36753 36.8709 6.53543 35.3484 5.99695 32.288C5.69327 30.5621 6.30955 28.169 7.64834 27.8156C10.2386 26.7756 11.5814 29.2896 11.9898 30.7062Z" fill="#0071FF"/>
</g>
<path d="M7.31422 35.9116C8.04997 36.6753 8.95211 37.0496 9.77457 36.8403C10.7138 36.6839 11.3876 36.2924 11.8484 35.7521C12.3075 35.2139 12.5331 34.5543 12.6262 33.8994C12.811 32.599 12.485 31.2343 12.3064 30.6149C12.0936 29.8767 11.6335 28.8322 10.8643 28.1009C10.4759 27.7316 10.0011 27.4352 9.43426 27.3078C8.86996 27.181 8.23845 27.2272 7.54385 27.5025C6.71952 27.7312 6.18512 28.5519 5.89383 29.4338C5.59381 30.3421 5.51087 31.427 5.67243 32.3451C5.95063 33.9263 6.56732 35.1363 7.31422 35.9116Z" stroke="white" stroke-width="0.659017"/>
<defs>
<filter id="filter0_d_1515_9376" x="2.51369" y="44.1171" width="57.1489" height="33.9666" filterUnits="userSpaceOnUse" color-interpolation-filters="sRGB">
<feFlood flood-opacity="0" result="BackgroundImageFix"/>
<feColorMatrix in="SourceAlpha" type="matrix" values="0 0 0 0 0 0 0 0 0 0 0 0 0 0 0 0 0 0 127 0" result="hardAlpha"/>
<feOffset dx="-4.24242" dy="1.06061"/>
<feGaussianBlur stdDeviation="2.12121"/>
<feComposite in2="hardAlpha" operator="out"/>
<feColorMatrix type="matrix" values="0 0 0 0 0 0 0 0 0 0 0 0 0 0 0 0 0 0 0.25 0"/>
<feBlend mode="normal" in2="BackgroundImageFix" result="effect1_dropShadow_1515_9376"/>
<feBlend mode="normal" in="SourceGraphic" in2="effect1_dropShadow_1515_9376" result="shape"/>
</filter>
<filter id="filter1_di_1515_9376" x="15.4356" y="50.7859" width="34.7902" height="15.9545" filterUnits="userSpaceOnUse" color-interpolation-filters="sRGB">
<feFlood flood-opacity="0" result="BackgroundImageFix"/>
<feColorMatrix in="SourceAlpha" type="matrix" values="0 0 0 0 0 0 0 0 0 0 0 0 0 0 0 0 0 0 127 0" result="hardAlpha"/>
<feOffset dx="-2.12121" dy="2.12121"/>
<feGaussianBlur stdDeviation="1.43182"/>
<feComposite in2="hardAlpha" operator="out"/>
<feColorMatrix type="matrix" values="0 0 0 0 0.600487 0 0 0 0 0.683212 0 0 0 0 0.931389 0 0 0 0.37 0"/>
<feBlend mode="normal" in2="BackgroundImageFix" result="effect1_dropShadow_1515_9376"/>
<feBlend mode="normal" in="SourceGraphic" in2="effect1_dropShadow_1515_9376" result="shape"/>
<feColorMatrix in="SourceAlpha" type="matrix" values="0 0 0 0 0 0 0 0 0 0 0 0 0 0 0 0 0 0 127 0" result="hardAlpha"/>
<feOffset dx="1.16883" dy="0.584416"/>
<feGaussianBlur stdDeviation="1.16883"/>
<feComposite in2="hardAlpha" operator="arithmetic" k2="-1" k3="1"/>
<feColorMatrix type="matrix" values="0 0 0 0 1 0 0 0 0 1 0 0 0 0 1 0 0 0 0.36 0"/>
<feBlend mode="normal" in2="shape" result="effect2_innerShadow_1515_9376"/>
</filter>
<filter id="filter2_di_1515_9376" x="18.2176" y="47.5047" width="33.0421" height="11.1264" filterUnits="userSpaceOnUse" color-interpolation-filters="sRGB">
<feFlood flood-opacity="0" result="BackgroundImageFix"/>
<feColorMatrix in="SourceAlpha" type="matrix" values="0 0 0 0 0 0 0 0 0 0 0 0 0 0 0 0 0 0 127 0" result="hardAlpha"/>
<feOffset dy="1.1014"/>
<feGaussianBlur stdDeviation="1.1014"/>
<feComposite in2="hardAlpha" operator="out"/>
<feColorMatrix type="matrix" values="0 0 0 0 0.600487 0 0 0 0 0.683212 0 0 0 0 0.931389 0 0 0 0.37 0"/>
<feBlend mode="normal" in2="BackgroundImageFix" result="effect1_dropShadow_1515_9376"/>
<feBlend mode="normal" in="SourceGraphic" in2="effect1_dropShadow_1515_9376" result="shape"/>
<feColorMatrix in="SourceAlpha" type="matrix" values="0 0 0 0 0 0 0 0 0 0 0 0 0 0 0 0 0 0 127 0" result="hardAlpha"/>
<feOffset dx="1.16883" dy="0.584416"/>
<feGaussianBlur stdDeviation="1.16883"/>
<feComposite in2="hardAlpha" operator="arithmetic" k2="-1" k3="1"/>
<feColorMatrix type="matrix" values="0 0 0 0 1 0 0 0 0 1 0 0 0 0 1 0 0 0 0.36 0"/>
<feBlend mode="normal" in2="shape" result="effect2_innerShadow_1515_9376"/>
</filter>
<filter id="filter3_i_1515_9376" x="28.9561" y="57.6926" width="11.0142" height="1.18666" filterUnits="userSpaceOnUse" color-interpolation-filters="sRGB">
<feFlood flood-opacity="0" result="BackgroundImageFix"/>
<feBlend mode="normal" in="SourceGraphic" in2="BackgroundImageFix" result="shape"/>
<feColorMatrix in="SourceAlpha" type="matrix" values="0 0 0 0 0 0 0 0 0 0 0 0 0 0 0 0 0 0 127 0" result="hardAlpha"/>
<feOffset dy="-1.1014"/>
<feComposite in2="hardAlpha" operator="arithmetic" k2="-1" k3="1"/>
<feColorMatrix type="matrix" values="0 0 0 0 0.815833 0 0 0 0 0.815833 0 0 0 0 0.815833 0 0 0 0.25 0"/>
<feBlend mode="normal" in2="shape" result="effect1_innerShadow_1515_9376"/>
</filter>
<filter id="filter4_i_1515_9376" x="51.4854" y="22.3768" width="11.8422" height="16.9592" filterUnits="userSpaceOnUse" color-interpolation-filters="sRGB">
<feFlood flood-opacity="0" result="BackgroundImageFix"/>
<feBlend mode="normal" in="SourceGraphic" in2="BackgroundImageFix" result="shape"/>
<feColorMatrix in="SourceAlpha" type="matrix" values="0 0 0 0 0 0 0 0 0 0 0 0 0 0 0 0 0 0 127 0" result="hardAlpha"/>
<feOffset dx="3.18182" dy="3.18182"/>
<feGaussianBlur stdDeviation="2.86364"/>
<feComposite in2="hardAlpha" operator="arithmetic" k2="-1" k3="1"/>
<feColorMatrix type="matrix" values="0 0 0 0 0.616223 0 0 0 0 0.731356 0 0 0 0 1 0 0 0 1 0"/>
<feBlend mode="normal" in2="shape" result="effect1_innerShadow_1515_9376"/>
</filter>
<filter id="filter5_i_1515_9376" x="47.7773" y="17.422" width="15.1552" height="26.7554" filterUnits="userSpaceOnUse" color-interpolation-filters="sRGB">
<feFlood flood-opacity="0" result="BackgroundImageFix"/>
<feBlend mode="normal" in="SourceGraphic" in2="BackgroundImageFix" result="shape"/>
<feColorMatrix in="SourceAlpha" type="matrix" values="0 0 0 0 0 0 0 0 0 0 0 0 0 0 0 0 0 0 127 0" result="hardAlpha"/>
<feOffset dx="3.18182" dy="3.18182"/>
<feGaussianBlur stdDeviation="2.86364"/>
<feComposite in2="hardAlpha" operator="arithmetic" k2="-1" k3="1"/>
<feColorMatrix type="matrix" values="0 0 0 0 0.616223 0 0 0 0 0.731356 0 0 0 0 1 0 0 0 1 0"/>
<feBlend mode="normal" in2="shape" result="effect1_innerShadow_1515_9376"/>
</filter>
<filter id="filter6_ddi_1515_9376" x="5.25354" y="0.348485" width="60.2425" height="59.3939" filterUnits="userSpaceOnUse" color-interpolation-filters="sRGB">
<feFlood flood-opacity="0" result="BackgroundImageFix"/>
<feColorMatrix in="SourceAlpha" type="matrix" values="0 0 0 0 0 0 0 0 0 0 0 0 0 0 0 0 0 0 127 0" result="hardAlpha"/>
<feOffset dx="2.12121" dy="3.18182"/>
<feGaussianBlur stdDeviation="2.91667"/>
<feComposite in2="hardAlpha" operator="out"/>
<feColorMatrix type="matrix" values="0 0 0 0 0.426836 0 0 0 0 0.661054 0 0 0 0 0.864722 0 0 0 0.38 0"/>
<feBlend mode="normal" in2="BackgroundImageFix" result="effect1_dropShadow_1515_9376"/>
<feColorMatrix in="SourceAlpha" type="matrix" values="0 0 0 0 0 0 0 0 0 0 0 0 0 0 0 0 0 0 127 0" result="hardAlpha"/>
<feOffset dx="-3.18182" dy="3.18182"/>
<feGaussianBlur stdDeviation="1.2197"/>
<feComposite in2="hardAlpha" operator="out"/>
<feColorMatrix type="matrix" values="0 0 0 0 0 0 0 0 0 0 0 0 0 0 0 0 0 0 0.09 0"/>
<feBlend mode="normal" in2="effect1_dropShadow_1515_9376" result="effect2_dropShadow_1515_9376"/>
<feBlend mode="normal" in="SourceGraphic" in2="effect2_dropShadow_1515_9376" result="shape"/>
<feColorMatrix in="SourceAlpha" type="matrix" values="0 0 0 0 0 0 0 0 0 0 0 0 0 0 0 0 0 0 127 0" result="hardAlpha"/>
<feOffset dx="5.30303" dy="3.18182"/>
<feGaussianBlur stdDeviation="1.31803"/>
<feComposite in2="hardAlpha" operator="arithmetic" k2="-1" k3="1"/>
<feColorMatrix type="matrix" values="0 0 0 0 0.826944 0 0 0 0 0.881696 0 0 0 0 1 0 0 0 1 0"/>
<feBlend mode="normal" in2="shape" result="effect3_innerShadow_1515_9376"/>
</filter>
<filter id="filter7_f_1515_9376" x="9.21027" y="3.23445" width="44.9156" height="32.9381" filterUnits="userSpaceOnUse" color-interpolation-filters="sRGB">
<feFlood flood-opacity="0" result="BackgroundImageFix"/>
<feBlend mode="normal" in="SourceGraphic" in2="BackgroundImageFix" result="shape"/>
<feGaussianBlur stdDeviation="4.36679" result="effect1_foregroundBlur_1515_9376"/>
</filter>
<filter id="filter8_f_1515_9376" x="42.9198" y="7.76762" width="12.9777" height="13.6927" filterUnits="userSpaceOnUse" color-interpolation-filters="sRGB">
<feFlood flood-opacity="0" result="BackgroundImageFix"/>
<feBlend mode="normal" in="SourceGraphic" in2="BackgroundImageFix" result="shape"/>
<feGaussianBlur stdDeviation="0.823772" result="effect1_foregroundBlur_1515_9376"/>
</filter>
<filter id="filter9_ii_1515_9376" x="17.7772" y="10.687" width="39.8931" height="41.3707" filterUnits="userSpaceOnUse" color-interpolation-filters="sRGB">
<feFlood flood-opacity="0" result="BackgroundImageFix"/>
<feBlend mode="normal" in="SourceGraphic" in2="BackgroundImageFix" result="shape"/>
<feColorMatrix in="SourceAlpha" type="matrix" values="0 0 0 0 0 0 0 0 0 0 0 0 0 0 0 0 0 0 127 0" result="hardAlpha"/>
<feOffset dx="1.06061" dy="4.24242"/>
<feGaussianBlur stdDeviation="2.65152"/>
<feComposite in2="hardAlpha" operator="arithmetic" k2="-1" k3="1"/>
<feColorMatrix type="matrix" values="0 0 0 0 0.519037 0 0 0 0 0.751653 0 0 0 0 0.989166 0 0 0 1 0"/>
<feBlend mode="normal" in2="shape" result="effect1_innerShadow_1515_9376"/>
<feColorMatrix in="SourceAlpha" type="matrix" values="0 0 0 0 0 0 0 0 0 0 0 0 0 0 0 0 0 0 127 0" result="hardAlpha"/>
<feOffset dx="-3.18182" dy="-2.12121"/>
<feGaussianBlur stdDeviation="4.0303"/>
<feComposite in2="hardAlpha" operator="arithmetic" k2="-1" k3="1"/>
<feColorMatrix type="matrix" values="0 0 0 0 1 0 0 0 0 1 0 0 0 0 1 0 0 0 0.66 0"/>
<feBlend mode="normal" in2="effect1_innerShadow_1515_9376" result="effect2_innerShadow_1515_9376"/>
</filter>
<filter id="filter10_f_1515_9376" x="19.8901" y="15.197" width="13.1219" height="14.2329" filterUnits="userSpaceOnUse" color-interpolation-filters="sRGB">
<feFlood flood-opacity="0" result="BackgroundImageFix"/>
<feBlend mode="normal" in="SourceGraphic" in2="BackgroundImageFix" result="shape"/>
<feGaussianBlur stdDeviation="0.265152" result="effect1_foregroundBlur_1515_9376"/>
</filter>
<filter id="filter11_i_1515_9376" x="4.82935" y="16.4783" width="16.9941" height="28.8262" filterUnits="userSpaceOnUse" color-interpolation-filters="sRGB">
<feFlood flood-opacity="0" result="BackgroundImageFix"/>
<feBlend mode="normal" in="SourceGraphic" in2="BackgroundImageFix" result="shape"/>
<feColorMatrix in="SourceAlpha" type="matrix" values="0 0 0 0 0 0 0 0 0 0 0 0 0 0 0 0 0 0 127 0" result="hardAlpha"/>
<feOffset dx="3.18182" dy="3.18182"/>
<feGaussianBlur stdDeviation="2.86364"/>
<feComposite in2="hardAlpha" operator="arithmetic" k2="-1" k3="1"/>
<feColorMatrix type="matrix" values="0 0 0 0 0.616223 0 0 0 0 0.731356 0 0 0 0 1 0 0 0 1 0"/>
<feBlend mode="normal" in2="shape" result="effect1_innerShadow_1515_9376"/>
</filter>
<filter id="filter12_i_1515_9376" x="4.43188" y="22.1903" width="13.028" height="18.311" filterUnits="userSpaceOnUse" color-interpolation-filters="sRGB">
<feFlood flood-opacity="0" result="BackgroundImageFix"/>
<feBlend mode="normal" in="SourceGraphic" in2="BackgroundImageFix" result="shape"/>
<feColorMatrix in="SourceAlpha" type="matrix" values="0 0 0 0 0 0 0 0 0 0 0 0 0 0 0 0 0 0 127 0" result="hardAlpha"/>
<feOffset dx="3.18182" dy="3.18182"/>
<feGaussianBlur stdDeviation="2.86364"/>
<feComposite in2="hardAlpha" operator="arithmetic" k2="-1" k3="1"/>
<feColorMatrix type="matrix" values="0 0 0 0 0.616223 0 0 0 0 0.731356 0 0 0 0 1 0 0 0 1 0"/>
<feBlend mode="normal" in2="shape" result="effect1_innerShadow_1515_9376"/>
</filter>
<filter id="filter13_i_1515_9376" x="5.26196" y="26.9111" width="10.9304" height="13.4984" filterUnits="userSpaceOnUse" color-interpolation-filters="sRGB">
<feFlood flood-opacity="0" result="BackgroundImageFix"/>
<feBlend mode="normal" in="SourceGraphic" in2="BackgroundImageFix" result="shape"/>
<feColorMatrix in="SourceAlpha" type="matrix" values="0 0 0 0 0 0 0 0 0 0 0 0 0 0 0 0 0 0 127 0" result="hardAlpha"/>
<feOffset dx="3.18182" dy="3.18182"/>
<feGaussianBlur stdDeviation="2.86364"/>
<feComposite in2="hardAlpha" operator="arithmetic" k2="-1" k3="1"/>
<feColorMatrix type="matrix" values="0 0 0 0 0.616223 0 0 0 0 0.731356 0 0 0 0 1 0 0 0 1 0"/>
<feBlend mode="normal" in2="shape" result="effect1_innerShadow_1515_9376"/>
</filter>
<linearGradient id="paint0_linear_1515_9376" x1="10.6797" y1="59.2121" x2="35.799" y2="71.9394" gradientUnits="userSpaceOnUse">
<stop stop-color="#BABFD4"/>
<stop offset="1" stop-color="#EAEDFA"/>
</linearGradient>
<linearGradient id="paint1_linear_1515_9376" x1="37.3898" y1="71.9394" x2="58.6019" y2="61.3333" gradientUnits="userSpaceOnUse">
<stop stop-color="#E9ECF9"/>
<stop offset="1" stop-color="#E5E9F6"/>
</linearGradient>
<linearGradient id="paint2_linear_1515_9376" x1="42.6929" y1="49.6667" x2="37.9201" y2="67.1667" gradientUnits="userSpaceOnUse">
<stop stop-color="#EBEEFF"/>
<stop offset="1" stop-color="#F9FAFF"/>
</linearGradient>
<linearGradient id="paint3_linear_1515_9376" x1="49.0569" y1="56.301" x2="22.3824" y2="62.2014" gradientUnits="userSpaceOnUse">
<stop stop-color="#3438FB"/>
<stop offset="1" stop-color="#98CAFF"/>
</linearGradient>
<linearGradient id="paint4_linear_1515_9376" x1="47.25" y1="58.1367" x2="34.4649" y2="45.177" gradientUnits="userSpaceOnUse">
<stop stop-color="#54CAFE"/>
<stop offset="1" stop-color="#4E82FF"/>
</linearGradient>
<linearGradient id="paint5_linear_1515_9376" x1="56.9284" y1="27.0114" x2="51.0987" y2="30.1227" gradientUnits="userSpaceOnUse">
<stop stop-color="#4E82FF"/>
<stop offset="1" stop-color="#54CAFE"/>
</linearGradient>
<linearGradient id="paint6_linear_1515_9376" x1="54.9213" y1="25.4709" x2="46.5794" y2="28.9861" gradientUnits="userSpaceOnUse">
<stop stop-color="#4E82FF"/>
<stop offset="1" stop-color="#54CAFE"/>
</linearGradient>
<linearGradient id="paint7_linear_1515_9376" x1="57.3061" y1="19.727" x2="48.0805" y2="24.0698" gradientUnits="userSpaceOnUse">
<stop offset="1" stop-color="white"/>
</linearGradient>
<linearGradient id="paint8_linear_1515_9376" x1="35.7778" y1="7.45739" x2="15.8793" y2="46.4333" gradientUnits="userSpaceOnUse">
<stop stop-color="white"/>
<stop offset="1" stop-color="#E3ECFF"/>
</linearGradient>
<linearGradient id="paint9_linear_1515_9376" x1="30.1152" y1="22.1937" x2="34.5128" y2="48.2396" gradientUnits="userSpaceOnUse">
<stop stop-color="#54CAFE"/>
<stop offset="1" stop-color="#4E82FF"/>
</linearGradient>
<linearGradient id="paint10_linear_1515_9376" x1="33.3829" y1="17.2881" x2="43.2956" y2="46.9173" gradientUnits="userSpaceOnUse">
<stop stop-color="#3AB8FF"/>
<stop offset="1" stop-color="#3438FB"/>
</linearGradient>
<linearGradient id="paint11_linear_1515_9376" x1="52.7705" y1="19.0992" x2="40.597" y2="42.7965" gradientUnits="userSpaceOnUse">
<stop stop-color="white"/>
<stop offset="1" stop-color="#D5E2F0"/>
</linearGradient>
<linearGradient id="paint12_linear_1515_9376" x1="49.7345" y1="27.4029" x2="51.7308" y2="31.6377" gradientUnits="userSpaceOnUse">
<stop stop-color="white"/>
<stop offset="1" stop-color="#E3F1FF"/>
</linearGradient>
<linearGradient id="paint13_linear_1515_9376" x1="39.5112" y1="32.1667" x2="36.3294" y2="27.9242" gradientUnits="userSpaceOnUse">
<stop stop-color="#E3F1FF"/>
<stop offset="1" stop-color="white"/>
</linearGradient>
</defs>
</svg>
