<svg width="16" height="16" viewBox="0 0 16 16" fill="none" xmlns="http://www.w3.org/2000/svg">
<g clip-path="url(#clip0_1926_1408)">
<path fill-rule="evenodd" clip-rule="evenodd" d="M8.43964 15.9809C8.51503 16.0348 8.59041 16.0563 8.67656 16.0563C8.74118 16.0563 8.80579 16.0348 8.85964 16.0132L9.08579 15.884V8.25697L13.738 2.06273C13.975 1.73955 14.018 1.31942 13.835 0.963922C13.6519 0.608427 13.2965 0.382202 12.898 0.382202H1.71974C1.32128 0.382202 0.965901 0.608427 0.782827 0.963922C0.599753 1.31942 0.642829 1.73955 0.879749 2.06273L5.52122 8.25697V13.5894C5.52122 13.8695 5.66122 14.1388 5.89814 14.2896L8.43964 15.9809ZM1.51512 1.33019C1.52589 1.2871 1.59051 1.20092 1.71974 1.20092V1.19015H12.9088C13.038 1.19015 13.0919 1.27633 13.1134 1.31942C13.135 1.36251 13.1673 1.45946 13.0919 1.56719L8.36426 7.86916L8.27811 7.98766V14.9037L6.35044 13.6217C6.33967 13.611 6.33967 13.611 6.33967 13.6002V7.98766L1.53666 1.57796C1.47024 1.48304 1.49579 1.39648 1.51017 1.34777C1.51211 1.3412 1.51384 1.33531 1.51512 1.33019ZM10.3814 9.08646H14.9045C15.1414 9.08646 15.3352 8.89255 15.3352 8.65555C15.3352 8.41856 15.1414 8.22465 14.9045 8.22465H10.3814C10.1445 8.22465 9.95068 8.41856 9.95068 8.65555C9.95068 8.89255 10.1445 9.08646 10.3814 9.08646ZM10.3814 11.6719H14.9045C15.1414 11.6719 15.3352 11.478 15.3352 11.241C15.3352 11.004 15.1414 10.8101 14.9045 10.8101H10.3814C10.1445 10.8101 9.95068 11.004 9.95068 11.241C9.95068 11.478 10.1445 11.6719 10.3814 11.6719ZM10.3814 14.2573H14.9045C15.1414 14.2573 15.3352 14.0634 15.3352 13.8264C15.3352 13.5894 15.1414 13.3955 14.9045 13.3955H10.3814C10.1445 13.3955 9.95068 13.5894 9.95068 13.8264C9.95068 14.0634 10.1445 14.2573 10.3814 14.2573Z" fill="#8D8E92"/>
</g>
<defs>
<clipPath id="clip0_1926_1408">
<rect width="16" height="16" fill="white"/>
</clipPath>
</defs>
</svg>
