<?xml version="1.0" standalone="no"?><!DOCTYPE svg PUBLIC "-//W3C//DTD SVG 1.1//EN" "http://www.w3.org/Graphics/SVG/1.1/DTD/svg11.dtd"><svg t="1732964399963" class="icon" viewBox="0 0 1024 1024" version="1.1" xmlns="http://www.w3.org/2000/svg" p-id="14725" width="16" height="16" xmlns:xlink="http://www.w3.org/1999/xlink"><path d="M954.2656 688.7424L754.8928 912.7936a69.8368 69.8368 0 0 1-44.9536 17.2032A61.44 61.44 0 0 1 665.6 912.9984l-202.752-223.232a79.36 79.36 0 0 1-13.312-41.5744 58.1632 58.1632 0 0 1 56.6272-56.7296 65.8432 65.8432 0 0 1 44.7488 20.48l102.4 112.0256v-573.44a53.1456 53.1456 0 0 1 56.6272-56.7296A54.6816 54.6816 0 0 1 768 150.7328v573.44l102.4-112.64a55.5008 55.5008 0 0 1 40.1408-20.48 59.0848 59.0848 0 0 1 60.928 56.7296 56.832 56.832 0 0 1-17.2032 40.96z m-684.8512 43.8272H114.5856a61.44 61.44 0 0 0-61.44 61.44 61.44 61.44 0 0 0 61.44 61.44h154.8288a61.44 61.44 0 0 0 61.44-61.44 61.44 61.44 0 0 0-61.44-61.44z m103.1168-299.2128H114.5856a61.44 61.44 0 0 0-61.44 61.44 61.44 61.44 0 0 0 61.44 61.44h257.9456a61.952 61.952 0 0 0 61.44-61.44 61.44 61.44 0 0 0-61.44-61.44zM475.7504 134.144H114.5856a61.44 61.44 0 0 0-61.44 61.44 61.44 61.44 0 0 0 61.44 61.44h361.1648a61.44 61.44 0 0 0 61.44-61.44 61.44 61.44 0 0 0-61.44-61.44z" fill="#409eff" p-id="14726"></path></svg>