<svg width="116" height="40" viewBox="0 0 116 40" fill="none" xmlns="http://www.w3.org/2000/svg">
<path d="M31.8084 26.8853L29.0241 24.1067L29.0228 24.1055C29.5 23.5418 29.889 22.9094 30.1767 22.2297C30.5616 21.3215 30.7568 20.3571 30.7568 19.3633C30.7568 18.3696 30.5616 17.4052 30.1767 16.497C29.805 15.6201 29.2731 14.8327 28.5957 14.1567C27.9183 13.4807 27.1293 12.9498 26.2506 12.5789C25.3405 12.1948 24.3742 12 23.3784 12C22.3826 12 21.4163 12.1948 20.5062 12.5789C19.6275 12.9498 18.8385 13.4806 18.1611 14.1567C17.4837 14.8327 16.9517 15.6201 16.5801 16.497C16.1952 17.4052 16 18.3696 16 19.3633C16 20.3571 16.1952 21.3215 16.5801 22.2297C16.9517 23.1066 17.4837 23.894 18.1611 24.57C18.8385 25.246 19.6275 25.7769 20.5062 26.1478C21.4163 26.5319 22.3826 26.7267 23.3784 26.7267C24.3742 26.7267 25.3405 26.5319 26.2506 26.1478C26.9209 25.8649 27.5387 25.4886 28.0949 25.0261C28.0962 25.0274 28.0974 25.0288 28.0987 25.0301L30.883 27.8087C31.0108 27.9363 31.1782 28 31.3457 28C31.5131 28 31.6806 27.9362 31.8084 27.8088C32.0639 27.5538 32.0639 27.1403 31.8084 26.8853ZM23.3784 25.4678C21.7445 25.4678 20.2084 24.8328 19.0531 23.6799C17.8977 22.5269 17.2614 20.9939 17.2614 19.3633C17.2614 17.7328 17.8977 16.1998 19.0531 15.0468C20.2084 13.8938 21.7445 13.2589 23.3784 13.2589C25.0123 13.2589 26.5484 13.8938 27.7037 15.0468C28.8591 16.1998 29.4953 17.7328 29.4953 19.3633C29.4953 20.9939 28.8591 22.5269 27.7037 23.6799C26.5484 24.8328 25.0123 25.4678 23.3784 25.4678Z" fill="#8D8E92"/>
<path d="M40.57 21.865C41.71 21.505 43.405 20.86 45.04 20.245L45.235 21.25C43.735 21.85 42.13 22.465 40.885 22.945L40.57 21.865ZM40.69 16.93H45.07V17.98H40.69V16.93ZM42.475 13.915H43.555V26.305C43.555 26.905 43.42 27.22 43.06 27.415C42.7 27.595 42.16 27.64 41.275 27.64C41.23 27.34 41.095 26.875 40.945 26.545C41.545 26.56 42.07 26.56 42.235 26.56C42.4 26.56 42.475 26.5 42.475 26.305V13.915ZM48.295 14.455L49.105 15.19C48.265 15.655 47.155 16.015 46.21 16.27C46.165 16.075 46 15.73 45.88 15.52C46.75 15.25 47.725 14.815 48.295 14.455ZM45.865 15.52L46.855 15.835V20.695H45.865V15.52ZM46.21 19.765H52.69V16.075H50.83V15.145H53.725V20.695H46.21V19.765ZM46.3 17.485H48.49V18.34H46.3V17.485ZM50.905 17.47H53.185V18.325H50.905V17.47ZM49.21 13.9H50.23V22.585H49.21V13.9ZM45.685 22.15H52.9V23.125H45.685V22.15ZM52.57 22.15H52.795L52.975 22.12L53.665 22.435C52.24 25.675 48.76 27.13 45.055 27.73C44.965 27.475 44.74 27.04 44.56 26.815C48.025 26.35 51.37 25 52.57 22.315V22.15ZM47.155 22.795C48.43 24.88 51.19 26.245 54.43 26.755C54.19 26.98 53.905 27.4 53.755 27.67C50.47 27.04 47.695 25.54 46.24 23.17L47.155 22.795ZM61.9 13.9H63.085V18.1H61.9V13.9ZM64.96 21.58L65.77 21.085C66.835 21.955 68.17 23.2 68.815 24.025L67.96 24.61C67.36 23.785 66.04 22.48 64.96 21.58ZM64.495 24.955L65.35 24.385C66.58 25.03 68.215 26.02 69.055 26.725L68.155 27.37C67.375 26.695 65.77 25.645 64.495 24.955ZM59.335 24.46L60.37 24.865C59.41 25.81 57.955 26.8 56.785 27.415C56.59 27.22 56.155 26.845 55.915 26.665C57.145 26.11 58.48 25.285 59.335 24.46ZM56.14 15.235H68.845V16.225H56.14V15.235ZM55.99 17.62H69.04V20.44H67.93V18.58H57.055V20.44H55.99V17.62ZM56.815 24.22C56.785 24.01 56.635 23.5 56.53 23.23C57.01 23.17 57.67 22.96 58.54 22.615C59.5 22.255 62.74 20.845 65.095 19.3L65.89 19.99C63.19 21.64 60.295 22.885 57.52 23.755V23.8C57.52 23.8 56.815 24.025 56.815 24.22ZM56.815 24.22L56.8 23.515L57.505 23.155L66.895 22.63C66.925 22.9 67.015 23.26 67.09 23.44C58.135 23.995 57.34 24.055 56.815 24.22ZM57.895 21.715C57.85 21.505 57.7 21.01 57.61 20.74C57.895 20.71 58.255 20.56 58.69 20.35C59.155 20.11 60.73 19.255 61.84 18.31L62.65 18.925C61.345 19.87 59.89 20.68 58.465 21.235V21.265C58.465 21.265 57.895 21.52 57.895 21.715ZM57.895 21.715V21.07L58.45 20.8L63.61 20.515C63.535 20.74 63.445 21.085 63.415 21.25C58.735 21.535 58.21 21.61 57.895 21.715ZM62.17 23.26H63.265V26.395C63.265 26.98 63.13 27.28 62.65 27.46C62.17 27.625 61.42 27.64 60.325 27.64C60.25 27.31 60.07 26.89 59.905 26.59C60.835 26.62 61.63 26.62 61.87 26.605C62.11 26.59 62.17 26.545 62.17 26.365V23.26ZM76.765 19.99L77.605 19.39C79.135 20.71 81.085 22.585 82.045 23.755L81.115 24.475C80.215 23.29 78.295 21.37 76.765 19.99ZM76.93 13.9H78.085V16.84C78.085 19.24 77.65 22.405 73.78 24.67C73.63 24.43 73.24 24.025 72.985 23.83C76.735 21.805 76.93 18.91 76.93 16.84V13.9ZM71.47 16.465H82.945V17.575H72.595V27.73H71.47V16.465ZM82.435 16.465H83.545V26.215C83.545 26.95 83.365 27.31 82.855 27.505C82.33 27.685 81.4 27.7 80.05 27.7C80.005 27.385 79.825 26.86 79.675 26.545C80.74 26.59 81.76 26.59 82.06 26.575C82.345 26.56 82.435 26.47 82.435 26.215V16.465ZM89.965 17.035L91.03 17.38C90.025 18.685 88.495 19.93 87.115 20.725C86.95 20.5 86.56 20.065 86.32 19.855C87.685 19.18 89.095 18.13 89.965 17.035ZM93.79 17.68L94.54 17.035C95.92 17.845 97.645 19.09 98.485 19.93L97.675 20.695C96.865 19.825 95.185 18.55 93.79 17.68ZM88.3 22.675H96.715V27.655H95.575V23.68H89.38V27.715H88.3V22.675ZM88.885 26.2H96.13V27.205H88.885V26.2ZM86.23 15.295H98.755V18.025H97.615V16.315H87.34V18.025H86.23V15.295ZM91.495 14.065L92.635 13.795C92.995 14.35 93.37 15.1 93.52 15.595L92.32 15.895C92.185 15.415 91.825 14.65 91.495 14.065ZM92.425 18.34L93.4 18.775C91.825 21.205 89.155 23.2 86.275 24.385C86.11 24.1 85.81 23.71 85.555 23.485C88.33 22.45 90.985 20.56 92.425 18.34ZM92.86 18.865C94.6 20.98 96.82 22.24 99.385 23.26C99.115 23.485 98.815 23.875 98.65 24.205C96.04 23.02 93.85 21.64 91.945 19.285L92.86 18.865Z" fill="#4B536A"/>
</svg>
